<svg xmlns="http://www.w3.org/2000/svg" width="63" height="63" viewBox="0 0 63 63">
  <g id="Groupe_346" data-name="Groupe 346" transform="translate(-4563 1323)">
    <g id="Groupe_342" data-name="Groupe 342" transform="translate(212 -2)">
      <g id="Ellipse_1" data-name="Ellipse 1" transform="translate(4351 -1321)" fill="none" stroke="#686868" stroke-width="2">
        <circle cx="14.5" cy="14.5" r="14.5" stroke="none"/>
        <circle cx="14.5" cy="14.5" r="13.5" fill="none"/>
      </g>
      <path id="Icon_feather-check" data-name="Icon feather-check" d="M19.492,9l-9.276,9.276L6,14.059" transform="translate(4352.87 -1318.757)" fill="none" stroke="#686868" stroke-linecap="round" stroke-linejoin="round" stroke-width="2"/>
    </g>
    <g id="Groupe_343" data-name="Groupe 343" transform="translate(246 -2)">
      <g id="Ellipse_1-2" data-name="Ellipse 1" transform="translate(4351 -1321)" fill="none" stroke="#686868" stroke-width="2">
        <circle cx="14.5" cy="14.5" r="14.5" stroke="none"/>
        <circle cx="14.5" cy="14.5" r="13.5" fill="none"/>
      </g>
      <path id="Icon_feather-check-2" data-name="Icon feather-check" d="M19.492,9l-9.276,9.276L6,14.059" transform="translate(4352.87 -1318.757)" fill="none" stroke="#686868" stroke-linecap="round" stroke-linejoin="round" stroke-width="2"/>
    </g>
    <g id="Groupe_344" data-name="Groupe 344" transform="translate(212 32)">
      <g id="Ellipse_1-3" data-name="Ellipse 1" transform="translate(4351 -1321)" fill="none" stroke="#686868" stroke-width="2">
        <circle cx="14.5" cy="14.5" r="14.5" stroke="none"/>
        <circle cx="14.5" cy="14.5" r="13.5" fill="none"/>
      </g>
      <path id="Icon_feather-check-3" data-name="Icon feather-check" d="M19.492,9l-9.276,9.276L6,14.059" transform="translate(4352.87 -1318.757)" fill="none" stroke="#686868" stroke-linecap="round" stroke-linejoin="round" stroke-width="2"/>
    </g>
    <g id="Groupe_345" data-name="Groupe 345" transform="translate(246 32)">
      <g id="Ellipse_1-4" data-name="Ellipse 1" transform="translate(4351 -1321)" fill="none" stroke="#686868" stroke-width="2">
        <circle cx="14.5" cy="14.5" r="14.5" stroke="none"/>
        <circle cx="14.5" cy="14.5" r="13.5" fill="none"/>
      </g>
      <path id="Icon_feather-check-4" data-name="Icon feather-check" d="M19.492,9l-9.276,9.276L6,14.059" transform="translate(4352.87 -1318.757)" fill="none" stroke="#686868" stroke-linecap="round" stroke-linejoin="round" stroke-width="2"/>
    </g>
  </g>
</svg>
