<svg xmlns="http://www.w3.org/2000/svg" width="16.126" height="25.762" viewBox="0 0 16.126 25.762">
  <g id="Groupe_197" data-name="Groupe 197" transform="translate(-2402.736 -4021.277)">
    <g id="Groupe_198" data-name="Groupe 198" transform="translate(2402.736 4021.277)">
      <path id="__TEMP__SVG__" d="M7.5,25.536.226,18.517a.76.76,0,0,1,0-1.082l1.157-1.107a.768.768,0,0,1,.566-.226.768.768,0,0,1,.566.226l3.924,3.8V5.636l-3.924,3.8a.768.768,0,0,1-.566.226.768.768,0,0,1-.566-.226L.226,8.328a.76.76,0,0,1,0-1.082L7.5.226a.822.822,0,0,1,1.132,0L15.9,7.246a.76.76,0,0,1,0,1.082L14.743,9.435a.822.822,0,0,1-1.132,0L9.661,5.61V20.152l3.95-3.824a.822.822,0,0,1,1.132,0L15.9,17.435a.76.76,0,0,1,0,1.082L8.63,25.536a.822.822,0,0,1-1.132,0Z" fill="#686868"/>
    </g>
  </g>
</svg>
