<svg xmlns="http://www.w3.org/2000/svg" xmlns:xlink="http://www.w3.org/1999/xlink" width="48.001" height="39" viewBox="0 0 48.001 39">
  <defs>
    <filter id="Icon_awesome-box-open" x="0" y="0" width="48.001" height="39" filterUnits="userSpaceOnUse">
      <feOffset dy="3" input="SourceAlpha"/>
      <feGaussianBlur stdDeviation="3" result="blur"/>
      <feFlood flood-opacity="0.161"/>
      <feComposite operator="in" in2="blur"/>
      <feComposite in="SourceGraphic"/>
    </filter>
  </defs>
  <g transform="matrix(1, 0, 0, 1, 0, 0)" filter="url(#Icon_awesome-box-open)">
    <path id="Icon_awesome-box-open-2" data-name="Icon awesome-box-open" d="M19.953,12.749a2.272,2.272,0,0,1-1.941-1.1L15,6.655l-3.009,5a2.28,2.28,0,0,1-1.945,1.1,2.156,2.156,0,0,1-.623-.089L3,10.827v8.344a1.5,1.5,0,0,0,1.134,1.453L14.267,23.16a3.047,3.047,0,0,0,1.453,0l10.143-2.536A1.5,1.5,0,0,0,27,19.171V10.827L20.577,12.66A2.156,2.156,0,0,1,19.953,12.749ZM29.919,7.49,27.5,2.671a.766.766,0,0,0-.783-.417L15,3.749l4.3,7.129a.77.77,0,0,0,.867.342L29.44,8.572A.772.772,0,0,0,29.919,7.49ZM2.493,2.671.079,7.49A.764.764,0,0,0,.552,8.568l9.276,2.648a.77.77,0,0,0,.867-.342L15,3.749,3.271,2.254A.766.766,0,0,0,2.493,2.671Z" transform="translate(9 3.75)" fill="#b1b1b1"/>
  </g>
</svg>
