<svg xmlns="http://www.w3.org/2000/svg" width="26.25" height="30" viewBox="0 0 26.25 30">
  <path id="Icon_awesome-building" data-name="Icon awesome-building" d="M25.547,28.125H24.375V1.406A1.406,1.406,0,0,0,22.969,0H3.281A1.406,1.406,0,0,0,1.875,1.406V28.125H.7a.7.7,0,0,0-.7.7V30H26.25V28.828A.7.7,0,0,0,25.547,28.125ZM7.5,4.453a.7.7,0,0,1,.7-.7h2.344a.7.7,0,0,1,.7.7V6.8a.7.7,0,0,1-.7.7H8.2a.7.7,0,0,1-.7-.7Zm0,5.625a.7.7,0,0,1,.7-.7h2.344a.7.7,0,0,1,.7.7v2.344a.7.7,0,0,1-.7.7H8.2a.7.7,0,0,1-.7-.7Zm3.047,8.672H8.2a.7.7,0,0,1-.7-.7V15.7a.7.7,0,0,1,.7-.7h2.344a.7.7,0,0,1,.7.7v2.344A.7.7,0,0,1,10.547,18.75ZM15,28.125H11.25V23.2a.7.7,0,0,1,.7-.7H14.3a.7.7,0,0,1,.7.7Zm3.75-10.078a.7.7,0,0,1-.7.7H15.7a.7.7,0,0,1-.7-.7V15.7a.7.7,0,0,1,.7-.7h2.344a.7.7,0,0,1,.7.7Zm0-5.625a.7.7,0,0,1-.7.7H15.7a.7.7,0,0,1-.7-.7V10.078a.7.7,0,0,1,.7-.7h2.344a.7.7,0,0,1,.7.7Zm0-5.625a.7.7,0,0,1-.7.7H15.7a.7.7,0,0,1-.7-.7V4.453a.7.7,0,0,1,.7-.7h2.344a.7.7,0,0,1,.7.7Z"/>
</svg>
