<svg xmlns="http://www.w3.org/2000/svg" width="24.086" height="30" viewBox="0 0 24.086 30">
  <path id="Icon_awesome-angle-double-up" data-name="Icon awesome-angle-double-up" d="M13.319,18.961,23.552,29.194a1.8,1.8,0,0,1,0,2.551l-1.7,1.7a1.8,1.8,0,0,1-2.551,0L12.039,26.2,4.786,33.453a1.8,1.8,0,0,1-2.551,0l-1.708-1.7a1.8,1.8,0,0,1,0-2.551L10.76,18.968A1.8,1.8,0,0,1,13.319,18.961ZM10.76,4.514.527,14.747a1.8,1.8,0,0,0,0,2.551l1.7,1.7a1.8,1.8,0,0,0,2.551,0l7.254-7.254L19.285,19a1.8,1.8,0,0,0,2.551,0l1.7-1.7a1.8,1.8,0,0,0,0-2.551L13.3,4.514a1.789,1.789,0,0,0-2.543,0Z" transform="translate(0.004 -3.983)"/>
</svg>
