<svg xmlns="http://www.w3.org/2000/svg" width="33.75" height="30" viewBox="0 0 33.75 30">
  <path id="Icon_awesome-boxes" data-name="Icon awesome-boxes" d="M32.813,16.875H28.125V22.5L26.25,21.252,24.375,22.5V16.875H19.688a.94.94,0,0,0-.937.938v11.25a.94.94,0,0,0,.938.938H32.813a.94.94,0,0,0,.938-.937V17.813A.94.94,0,0,0,32.813,16.875Zm-22.5-3.75H23.438a.94.94,0,0,0,.938-.937V.938A.94.94,0,0,0,23.438,0H18.75V5.625L16.875,4.377,15,5.625V0H10.313a.94.94,0,0,0-.937.938v11.25A.94.94,0,0,0,10.313,13.125Zm3.75,3.75H9.375V22.5L7.5,21.252,5.625,22.5V16.875H.938A.94.94,0,0,0,0,17.813v11.25A.94.94,0,0,0,.938,30H14.063A.94.94,0,0,0,15,29.063V17.813A.94.94,0,0,0,14.063,16.875Z"/>
</svg>
