<svg xmlns="http://www.w3.org/2000/svg" xmlns:xlink="http://www.w3.org/1999/xlink" width="45.148" height="49" viewBox="0 0 45.148 49">
  <defs>
    <filter id="forest" x="0" y="0" width="45.148" height="49" filterUnits="userSpaceOnUse">
      <feOffset dy="3" input="SourceAlpha"/>
      <feGaussianBlur stdDeviation="3" result="blur"/>
      <feFlood flood-opacity="0.161"/>
      <feComposite operator="in" in2="blur"/>
      <feComposite in="SourceGraphic"/>
    </filter>
  </defs>
  <g transform="matrix(1, 0, 0, 1, 0, 0)" filter="url(#forest)">
    <path id="forest-2" data-name="forest" d="M26.19,24.915a2.218,2.218,0,0,1-.939.242l-.03.03h-7.75v3.875a1.888,1.888,0,0,1-.56,1.362A1.847,1.847,0,0,1,15.533,31H11.658a1.965,1.965,0,0,1-1.937-1.937V25.188H1.971a.027.027,0,0,0-.03-.03A2.218,2.218,0,0,1,1,24.915a1.85,1.85,0,0,1-.908-1.15,1.772,1.772,0,0,1,.212-1.454L4.816,15.5H3.907v-.06a1.646,1.646,0,0,1-.969-.212,1.85,1.85,0,0,1-.908-1.15,1.772,1.772,0,0,1,.212-1.454L11.931.969q0-.03.121-.152l.166-.166L12.385.5l.2-.152.212-.136L13.036.09l.257-.06L13.6,0l.3.03.257.06L14.4.212l.212.136.2.152.166.152.165.166.152.152,9.688,11.655a1.9,1.9,0,0,1-.727,2.6,1.646,1.646,0,0,1-.969.212v.06h-.908l4.541,6.811a1.9,1.9,0,0,1-.727,2.6Z" transform="translate(8.98 6)" fill="#bf8600"/>
  </g>
</svg>
