<svg xmlns="http://www.w3.org/2000/svg" xmlns:xlink="http://www.w3.org/1999/xlink" width="45" height="45" viewBox="0 0 45 45">
  <defs>
    <filter id="Icon_awesome-info-circle" x="0" y="0" width="45" height="45" filterUnits="userSpaceOnUse">
      <feOffset dy="3" input="SourceAlpha"/>
      <feGaussianBlur stdDeviation="3" result="blur"/>
      <feFlood flood-opacity="0.161"/>
      <feComposite operator="in" in2="blur"/>
      <feComposite in="SourceGraphic"/>
    </filter>
  </defs>
  <g transform="matrix(1, 0, 0, 1, 0, 0)" filter="url(#Icon_awesome-info-circle)">
    <path id="Icon_awesome-info-circle-2" data-name="Icon awesome-info-circle" d="M14.063.563a13.5,13.5,0,1,0,13.5,13.5A13.5,13.5,0,0,0,14.063.563Zm0,5.988a2.286,2.286,0,1,1-2.286,2.286A2.286,2.286,0,0,1,14.063,6.55Zm3.048,13.827a.653.653,0,0,1-.653.653h-4.79a.653.653,0,0,1-.653-.653V19.071a.653.653,0,0,1,.653-.653h.653V14.933h-.653a.653.653,0,0,1-.653-.653V12.974a.653.653,0,0,1,.653-.653h3.484a.653.653,0,0,1,.653.653v5.444h.653a.653.653,0,0,1,.653.653Z" transform="translate(8.44 5.44)" fill="#686868"/>
  </g>
</svg>
