<svg xmlns="http://www.w3.org/2000/svg" width="12.752" height="11.841" viewBox="0 0 12.752 11.841">
  <path id="Icon_ionic-ios-star" data-name="Icon ionic-ios-star" d="M14.518,7.474H10.331l-1.272-3.8a.461.461,0,0,0-.865,0l-1.272,3.8H2.705a.457.457,0,0,0-.455.455.335.335,0,0,0,.009.077.438.438,0,0,0,.191.322l3.441,2.425L4.57,14.593a.457.457,0,0,0,.157.512.44.44,0,0,0,.256.111.558.558,0,0,0,.285-.1L8.626,12.72l3.359,2.394a.533.533,0,0,0,.285.1.409.409,0,0,0,.253-.111.451.451,0,0,0,.157-.512l-1.321-3.84L14.771,8.3l.083-.071a.435.435,0,0,0-.336-.76Z" transform="translate(-2.25 -3.375)" fill="#fff"/>
</svg>
