<svg xmlns="http://www.w3.org/2000/svg" width="19.799" height="28.209" viewBox="0 0 19.799 28.209">
  <path id="pin" d="M9.867.25a9.621,9.621,0,0,1,7.019,2.88A9.462,9.462,0,0,1,19.8,10.117a13.5,13.5,0,0,1-1.027,4.734,27.484,27.484,0,0,1-2.483,4.966q-1.457,2.284-2.914,4.3t-2.45,3.212L9.867,28.459q-.4-.4-1.059-1.192t-2.35-3.079Q4.768,21.9,3.444,19.752a30.261,30.261,0,0,1-2.385-4.868A13.383,13.383,0,0,1,0,10.117,9.513,9.513,0,0,1,2.88,3.13,9.513,9.513,0,0,1,9.867.25Zm0,13.376A3.494,3.494,0,0,0,12.383,12.6a3.44,3.44,0,0,0,0-4.966A3.488,3.488,0,0,0,9.867,6.607a3.505,3.505,0,0,0-3.51,3.51,3.5,3.5,0,0,0,3.51,3.509Z" transform="translate(0 -0.25)" fill="#686868"/>
</svg>
