<svg xmlns="http://www.w3.org/2000/svg" xmlns:xlink="http://www.w3.org/1999/xlink" width="54" height="54" viewBox="0 0 54 54">
  <defs>
    <filter id="Icon_awesome-user-alt" x="0" y="0" width="54" height="54" filterUnits="userSpaceOnUse">
      <feOffset dy="3" input="SourceAlpha"/>
      <feGaussianBlur stdDeviation="3" result="blur"/>
      <feFlood flood-opacity="0.161"/>
      <feComposite operator="in" in2="blur"/>
      <feComposite in="SourceGraphic"/>
    </filter>
  </defs>
  <g transform="matrix(1, 0, 0, 1, 0, 0)" filter="url(#Icon_awesome-user-alt)">
    <path id="Icon_awesome-user-alt-2" data-name="Icon awesome-user-alt" d="M18,20.25A10.125,10.125,0,1,0,7.875,10.125,10.128,10.128,0,0,0,18,20.25Zm9,2.25H23.126a12.24,12.24,0,0,1-10.252,0H9a9,9,0,0,0-9,9v1.125A3.376,3.376,0,0,0,3.375,36h29.25A3.376,3.376,0,0,0,36,32.625V31.5A9,9,0,0,0,27,22.5Z" transform="translate(9 6)" fill="#686868"/>
  </g>
</svg>
