<svg xmlns="http://www.w3.org/2000/svg" width="27.723" height="27.722" viewBox="0 0 27.723 27.722">
  <path id="Icon_awesome-weight-hanging" data-name="Icon awesome-weight-hanging" d="M27.63,24.142,23.675,8.324A1.764,1.764,0,0,0,22,6.931H18.742a5.2,5.2,0,1,0-9.759,0H5.72A1.764,1.764,0,0,0,4.048,8.324L.093,24.142A2.793,2.793,0,0,0,2.6,27.723H25.123A2.793,2.793,0,0,0,27.63,24.142ZM13.861,6.931A1.733,1.733,0,1,1,15.594,5.2,1.735,1.735,0,0,1,13.861,6.931Z" transform="translate(0 -0.001)" fill="#686868"/>
</svg>
