<?xml version="1.0" standalone="no"?>
<!DOCTYPE svg PUBLIC "-//W3C//DTD SVG 20010904//EN"
 "http://www.w3.org/TR/2001/REC-SVG-20010904/DTD/svg10.dtd">
<svg version="1.0" xmlns="http://www.w3.org/2000/svg"
 width="256.000000pt" height="256.000000pt" viewBox="0 0 256.000000 256.000000"
 preserveAspectRatio="xMidYMid meet">

<g transform="translate(0.000000,256.000000) scale(0.100000,-0.100000)"
fill="#000000" stroke="none">
<path d="M590 2051 c-5 -11 -10 -62 -10 -115 0 -132 -12 -126 261 -126 185 0
218 -2 230 -16 9 -11 10 -20 2 -32 -9 -15 -37 -17 -221 -20 l-211 -2 -5 -53
c-29 -297 -40 -390 -61 -493 -45 -222 -96 -369 -179 -517 -33 -59 -40 -67 -66
-67 -58 0 -92 -67 -52 -103 17 -16 101 -17 1004 -17 941 0 986 1 1001 18 35
38 5 102 -47 102 -27 0 -54 37 -109 146 -79 159 -128 373 -151 662 -5 63 -4
73 11 79 28 10 33 23 33 90 0 101 21 93 -250 93 l-239 0 6 -57 c19 -219 74
-490 128 -643 36 -101 109 -240 161 -309 l42 -56 -50 -3 c-63 -4 -72 6 -153
160 -118 226 -197 559 -221 929 -7 106 -7 107 17 114 13 4 27 13 31 19 13 19
9 211 -4 224 -9 9 -123 12 -450 12 -422 0 -438 -1 -448 -19z"/>
</g>
</svg>
