<svg xmlns="http://www.w3.org/2000/svg" xmlns:xlink="http://www.w3.org/1999/xlink" width="43.871" height="43.871" viewBox="0 0 43.871 43.871">
  <defs>
    <filter id="fence" x="0" y="0" width="43.871" height="43.871" filterUnits="userSpaceOnUse">
      <feOffset dy="3" input="SourceAlpha"/>
      <feGaussianBlur stdDeviation="3" result="blur"/>
      <feFlood flood-opacity="0.161"/>
      <feComposite operator="in" in2="blur"/>
      <feComposite in="SourceGraphic"/>
    </filter>
  </defs>
  <g transform="matrix(1, 0, 0, 1, 0, 0)" filter="url(#fence)">
    <path id="fence-2" data-name="fence" d="M25.062,19.4a.82.82,0,0,1,.808.808v1.617a.82.82,0,0,1-.808.808h-.808v2.425a.82.82,0,0,1-.808.808H20.211a.82.82,0,0,1-.808-.808V22.637H16.169v2.425a.82.82,0,0,1-.808.808H12.127a.82.82,0,0,1-.808-.808V22.637H8.085v2.425a.82.82,0,0,1-.808.808H4.042a.82.82,0,0,1-.808-.808V22.637H.808A.777.777,0,0,1,.24,22.4.777.777,0,0,1,0,21.828V20.211a.777.777,0,0,1,.24-.568.777.777,0,0,1,.568-.24H3.234V9.7H.808a.777.777,0,0,1-.568-.24A.777.777,0,0,1,0,8.893V7.276a.777.777,0,0,1,.24-.568.777.777,0,0,1,.568-.24H3.234V4.042A3.693,3.693,0,0,1,3.36,2.779l1.97-2.6A.376.376,0,0,1,5.646,0a.445.445,0,0,1,.341.177l1.945,2.6a2.894,2.894,0,0,1,.152,1.263V6.468h3.234V4.042a4.119,4.119,0,0,1,.126-1.263l1.97-2.6A.376.376,0,0,1,13.731,0a.445.445,0,0,1,.341.177l1.97,2.6a3.425,3.425,0,0,1,.126,1.263V6.468H19.4V4.042a3.3,3.3,0,0,1,.126-1.263L21.5.177A.376.376,0,0,1,21.815,0a.445.445,0,0,1,.341.177l1.945,2.6a3.232,3.232,0,0,1,.152,1.263V6.468h.808a.82.82,0,0,1,.808.808V8.893a.82.82,0,0,1-.808.808h-.808v9.7ZM11.318,9.7H8.085v9.7h3.234Zm8.085,0H16.169v9.7H19.4Z" transform="translate(9 6)" fill="#8f8f8f"/>
  </g>
</svg>
