<svg xmlns="http://www.w3.org/2000/svg" xmlns:xlink="http://www.w3.org/1999/xlink" width="40.478" height="53.98" viewBox="0 0 40.478 53.98">
  <defs>
    <filter id="windmillalt" x="0" y="0" width="40.478" height="53.98" filterUnits="userSpaceOnUse">
      <feOffset dy="3" input="SourceAlpha"/>
      <feGaussianBlur stdDeviation="3" result="blur"/>
      <feFlood flood-opacity="0.161"/>
      <feComposite operator="in" in2="blur"/>
      <feComposite in="SourceGraphic"/>
    </filter>
  </defs>
  <g transform="matrix(1, 0, 0, 1, 0, 0)" filter="url(#windmillalt)">
    <path id="windmillalt-2" data-name="windmillalt" d="M17.982,12.117q.6,1.089,1.141,2.125t1.194,2.336q.65,1.3,1.089,2.388t.755,2.09a5.737,5.737,0,0,1,.316,1.651.891.891,0,0,1-.386.86q-.421.246-1.229-.3a9.167,9.167,0,0,1-1.791-1.721q-.983-1.176-1.9-2.441t-1.9-2.775q.457,6.006.457,18.544A1.143,1.143,0,0,1,14.611,36H12.363a1.141,1.141,0,0,1-1.124-1.124q0-13.1.492-19.106H10.115a1.141,1.141,0,0,1-1.124-1.124V13.382Q0,12.925,0,11.292T8.991,9.167V7.9a1.141,1.141,0,0,1,1.124-1.124h5.549a48.248,48.248,0,0,1,3.863-5.145Q21.283-.35,22.092.1a.91.91,0,0,1,.386.878,5.6,5.6,0,0,1-.316,1.651q-.316.984-.755,2.09T20.318,7.112q-.65,1.282-1.194,2.336T17.983,11.59v.527Z" transform="translate(9 5.98)" fill="#f7ff00"/>
  </g>
</svg>
